<?xml version="1.0" encoding="UTF-8"?>
<svg id="Layer_1" xmlns="http://www.w3.org/2000/svg" viewBox="0 0 1024 1024">
  <defs>
    <style>
      .cls-1 {
        fill: #ef8200;
      }

      .cls-2 {
        fill: #fff;
      }
    </style>
  </defs>
  <rect class="cls-1" x="121.21" y="120.84" width="782" height="782" rx="158" ry="158"/>
  <path class="cls-2" d="M745.21,952.84h-466c-114.69,0-208-93.31-208-208v-466c0-114.69,93.31-208,208-208h466c114.69,0,208,93.31,208,208v466c0,114.69-93.31,208-208,208ZM279.21,120.84c-87.12,0-158,70.88-158,158v466c0,87.12,70.88,158,158,158h466c87.12,0,158-70.88,158-158v-466c0-87.12-70.88-158-158-158h-466Z"/>
  <g>
    <path class="cls-2" d="M266.05,590.98c-11.27,0-21.15-2.21-29.63-6.65-8.49-4.43-15.1-10.51-19.83-18.25-4.73-7.74-7.1-16.64-7.1-26.7s2.37-18.78,7.1-27.04c4.73-8.26,11.27-14.87,19.6-19.83s17.91-7.44,28.73-7.44c10.06,0,18.7,2.03,25.91,6.08,7.21,4.06,12.73,9.2,16.56,15.44,3.83,6.24,5.75,12.81,5.75,19.72s-1.58,12.58-4.73,17.01c-3.15,4.43-7.25,7.81-12.28,10.14-5.03,2.33-10.4,3.87-16.11,4.62-5.71.75-11.19.87-16.45.34-5.26-.53-9.69-1.39-13.29-2.59,2.7,4.36,6.12,7.32,10.25,8.9,4.13,1.58,8.49,2.25,13.07,2.03,4.58-.23,8.75-.71,12.51-1.46,4.65-1.05,8.49-.82,11.49.68,3,1.5,4.58,3.91,4.73,7.21.15,2.7-.79,5.41-2.82,8.11-2.03,2.7-5.67,5-10.93,6.87-5.26,1.88-12.77,2.82-22.53,2.82ZM250.95,528.34c1.5,2.41,3.68,4.09,6.53,5.07,2.85.98,5.75,1.32,8.68,1.01,2.93-.3,5.41-1.13,7.44-2.48,2.03-1.35,3.04-3.23,3.04-5.63,0-2.55-1.01-4.84-3.04-6.87-2.03-2.03-5.22-3.04-9.58-3.04s-7.44,1.32-9.69,3.94c-2.25,2.63-3.38,5.29-3.38,8Z"/>
    <path class="cls-2" d="M395.84,590.98c-7.21,0-12.02-2.48-14.42-7.44-2.4-4.96-3.61-11.94-3.61-20.96,0-7.51-.23-13.75-.68-18.7-.45-4.96-2.56-7.44-6.31-7.44-3.15,0-5.37,1.13-6.65,3.38-1.28,2.25-1.99,5.33-2.14,9.24-.15,3.91-.23,8.42-.23,13.52s-.34,10.03-1.01,14.31c-.68,4.28-2.25,7.66-4.73,10.14s-6.42,3.72-11.83,3.72-9.5-1.88-12.73-5.63c-3.23-3.75-5.67-8.71-7.32-14.87-1.65-6.16-2.78-12.84-3.38-20.06-.6-7.21-.9-14.27-.9-21.18,0-12.62,1.13-23.1,3.38-31.43,2.25-8.34,7.06-13.56,14.42-15.66,4.51-1.35,8.79-1.43,12.84-.23,4.06,1.2,6.76,3.46,8.11,6.76,1.5-.75,3.3-1.54,5.41-2.37,2.1-.82,5.41-1.24,9.91-1.24s8.94,1.13,13.29,3.38c4.36,2.25,7.51,5.56,9.46,9.92,3.61-4.2,7.44-7.51,11.49-9.92,4.06-2.4,9.61-3.53,16.67-3.38,9.46.15,17.58,3.04,24.34,8.67,6.76,5.63,11.98,13.15,15.66,22.53,3.68,9.39,5.52,19.79,5.52,31.21,0,7.36-.64,14.39-1.92,21.07-1.28,6.69-3.61,12.13-6.99,16.34-3.38,4.21-8.15,6.31-14.31,6.31-5.41,0-9.35-1.27-11.83-3.83-2.48-2.55-4.06-5.97-4.73-10.25-.68-4.28-1.01-9.05-1.01-14.31s-.08-9.61-.23-13.52c-.15-3.91-.83-6.99-2.03-9.24-1.2-2.25-3.46-3.38-6.76-3.38-2.4,0-4.06,1.13-4.96,3.38-.9,2.25-1.39,5.33-1.46,9.24-.08,3.91-.19,8.42-.34,13.52-.15,9.01-1.46,16-3.94,20.96-2.48,4.96-7.18,7.44-14.08,7.44Z"/>
    <path class="cls-2" d="M539.6,590.98c-10.82,0-19.91-1.54-27.27-4.62-7.36-3.08-13.41-7.1-18.14-12.06-4.73-4.96-8.41-10.37-11.04-16.22-2.63-5.86-4.55-11.64-5.75-17.35-1.2-5.71-1.92-10.89-2.14-15.55-.23-4.65-.34-8.11-.34-10.37,0-6.91.37-14.12,1.13-21.63.75-7.51,1.95-14.83,3.6-21.97,1.65-7.13,3.87-13.56,6.65-19.27,2.78-5.71,6.12-10.29,10.03-13.75,3.9-3.45,8.56-5.18,13.97-5.18,4.81,0,9.2,1.58,13.18,4.73,3.98,3.16,5.97,8.04,5.97,14.65s-1.01,12.81-3.04,19.04c-2.03,6.24-3.34,12.58-3.94,19.04,3.45-1.95,7.13-3.34,11.04-4.17,3.9-.82,7.74-1.24,11.49-1.24,7.96,0,15.62,1.84,22.98,5.52,7.36,3.68,13.41,9.28,18.14,16.79,4.73,7.51,7.1,17.13,7.1,28.84,0,9.17-2.14,17.95-6.42,26.36-4.28,8.42-10.44,15.25-18.48,20.51-8.04,5.26-17.62,7.89-28.73,7.89ZM538.25,555.38c4.06,0,7.62-1.54,10.7-4.62s4.62-6.72,4.62-10.93-1.54-7.89-4.62-11.04c-3.08-3.16-6.65-4.73-10.7-4.73s-7.59,1.58-10.59,4.73c-3.01,3.15-4.51,6.84-4.51,11.04s1.5,7.85,4.51,10.93c3,3.08,6.53,4.62,10.59,4.62Z"/>
    <path class="cls-2" d="M656.55,590.98c-11.27,0-21.15-2.21-29.63-6.65-8.49-4.43-15.1-10.51-19.83-18.25-4.73-7.74-7.1-16.64-7.1-26.7s2.37-18.78,7.1-27.04c4.73-8.26,11.27-14.87,19.6-19.83,8.34-4.96,17.91-7.44,28.73-7.44,10.06,0,18.7,2.03,25.91,6.08,7.21,4.06,12.73,9.2,16.56,15.44,3.83,6.24,5.75,12.81,5.75,19.72s-1.58,12.58-4.73,17.01c-3.15,4.43-7.25,7.81-12.28,10.14-5.03,2.33-10.4,3.87-16.11,4.62-5.71.75-11.19.87-16.45.34-5.26-.53-9.69-1.39-13.29-2.59,2.7,4.36,6.12,7.32,10.25,8.9,4.13,1.58,8.49,2.25,13.07,2.03,4.58-.23,8.75-.71,12.51-1.46,4.66-1.05,8.49-.82,11.49.68,3,1.5,4.58,3.91,4.73,7.21.15,2.7-.79,5.41-2.82,8.11-2.03,2.7-5.67,5-10.93,6.87-5.26,1.88-12.77,2.82-22.53,2.82ZM641.46,528.34c1.5,2.41,3.68,4.09,6.54,5.07,2.85.98,5.75,1.32,8.68,1.01,2.93-.3,5.41-1.13,7.44-2.48,2.03-1.35,3.04-3.23,3.04-5.63,0-2.55-1.01-4.84-3.04-6.87s-5.22-3.04-9.58-3.04-7.44,1.32-9.69,3.94c-2.25,2.63-3.38,5.29-3.38,8Z"/>
    <path class="cls-2" d="M736.77,590.98c-5.11,0-9.28-1.69-12.51-5.07-3.23-3.38-5.67-7.92-7.32-13.63-1.66-5.71-2.78-12.24-3.38-19.6-.6-7.36-.9-14.95-.9-22.76,0-5.26.11-10.63.34-16.11.22-5.48.97-10.55,2.25-15.21,1.27-4.65,3.45-8.45,6.54-11.38,3.08-2.93,7.47-4.39,13.18-4.39,4.06,0,7.74.94,11.04,2.82,3.3,1.88,5.41,4.7,6.31,8.45,3.45-3.15,7.85-5.44,13.18-6.87,5.33-1.43,10.85-2.14,16.56-2.14,4.81,0,9.69,1.17,14.65,3.49,4.96,2.33,9.16,5.52,12.62,9.58,3.45,4.06,5.18,8.64,5.18,13.75,0,4.36-1.62,8.49-4.84,12.39-3.23,3.91-7.77,5.86-13.63,5.86-2.56,0-4.66-.34-6.31-1.01-1.66-.68-3.23-1.31-4.73-1.92-1.5-.6-3.31-.9-5.41-.9-5.56,0-10.63,2.22-15.21,6.65-4.58,4.43-6.87,10.4-6.87,17.91,0,3.91-.11,8.15-.34,12.73-.22,4.58-.9,8.98-2.03,13.18-1.13,4.21-3.12,7.63-5.97,10.25-2.86,2.63-6.99,3.94-12.39,3.94Z"/>
  </g>
</svg>